<svg width="197" height="56" viewBox="0 0 197 56" fill="none" xmlns="http://www.w3.org/2000/svg">
<rect x="1" y="1" width="194.229" height="53.025" rx="7" fill="#FFEB33" stroke="black" stroke-width="2"/>
<path d="M42.0603 20.426C41.9803 20.562 41.8963 20.662 41.8083 20.726C41.7203 20.79 41.6083 20.822 41.4723 20.822C41.3283 20.822 41.1643 20.758 40.9803 20.63C40.7963 20.494 40.5643 20.346 40.2843 20.186C40.0123 20.018 39.6843 19.87 39.3003 19.742C38.9163 19.606 38.4563 19.538 37.9203 19.538C37.4163 19.538 36.9723 19.606 36.5883 19.742C36.2123 19.87 35.8963 20.05 35.6403 20.282C35.3843 20.506 35.1883 20.774 35.0523 21.086C34.9243 21.39 34.8603 21.722 34.8603 22.082C34.8603 22.546 34.9763 22.93 35.2083 23.234C35.4483 23.538 35.7603 23.798 36.1443 24.014C36.5283 24.23 36.9643 24.418 37.4523 24.578C37.9403 24.738 38.4403 24.906 38.9523 25.082C39.4643 25.25 39.9643 25.446 40.4523 25.67C40.9403 25.894 41.3763 26.178 41.7603 26.522C42.1443 26.858 42.4523 27.274 42.6843 27.77C42.9243 28.258 43.0443 28.858 43.0443 29.57C43.0443 30.33 42.9123 31.042 42.6483 31.706C42.3923 32.37 42.0163 32.95 41.5203 33.446C41.0243 33.942 40.4123 34.334 39.6843 34.622C38.9643 34.902 38.1443 35.042 37.2243 35.042C36.6723 35.042 36.1363 34.986 35.6163 34.874C35.0963 34.77 34.6043 34.622 34.1403 34.43C33.6763 34.23 33.2403 33.994 32.8323 33.722C32.4323 33.442 32.0723 33.13 31.7523 32.786L32.4843 31.562C32.5563 31.466 32.6403 31.386 32.7363 31.322C32.8403 31.258 32.9563 31.226 33.0843 31.226C33.2523 31.226 33.4443 31.314 33.6603 31.49C33.8843 31.666 34.1563 31.862 34.4763 32.078C34.8043 32.286 35.1923 32.478 35.6403 32.654C36.0963 32.83 36.6483 32.918 37.2963 32.918C37.8243 32.918 38.2963 32.85 38.7123 32.714C39.1283 32.57 39.4763 32.37 39.7563 32.114C40.0443 31.85 40.2643 31.534 40.4163 31.166C40.5683 30.798 40.6443 30.39 40.6443 29.942C40.6443 29.438 40.5283 29.026 40.2963 28.706C40.0643 28.386 39.7563 28.118 39.3723 27.902C38.9883 27.686 38.5523 27.502 38.0643 27.35C37.5763 27.198 37.0763 27.042 36.5643 26.882C36.0523 26.714 35.5523 26.522 35.0643 26.306C34.5763 26.09 34.1403 25.81 33.7563 25.466C33.3723 25.114 33.0643 24.678 32.8323 24.158C32.6003 23.63 32.4843 22.982 32.4843 22.214C32.4843 21.598 32.6043 21.002 32.8443 20.426C33.0843 19.85 33.4323 19.342 33.8883 18.902C34.3523 18.454 34.9203 18.098 35.5923 17.834C36.2643 17.562 37.0323 17.426 37.8963 17.426C38.8643 17.426 39.7523 17.582 40.5603 17.894C41.3763 18.198 42.0843 18.638 42.6843 19.214L42.0603 20.426ZM47.848 17.138V27.494H48.4C48.568 27.494 48.708 27.47 48.82 27.422C48.932 27.374 49.048 27.278 49.168 27.134L52.816 23.114C52.928 22.962 53.052 22.85 53.188 22.778C53.324 22.698 53.496 22.658 53.704 22.658H55.84L51.532 27.374C51.3 27.67 51.052 27.898 50.788 28.058C50.94 28.162 51.072 28.282 51.184 28.418C51.304 28.554 51.42 28.702 51.532 28.862L56.116 34.85H54.016C53.824 34.85 53.656 34.818 53.512 34.754C53.376 34.69 53.252 34.574 53.14 34.406L49.372 29.51C49.252 29.326 49.132 29.21 49.012 29.162C48.892 29.106 48.712 29.078 48.472 29.078H47.848V34.85H45.508V17.138H47.848ZM60.3076 22.658V34.85H57.9676V22.658H60.3076ZM60.7516 18.89C60.7516 19.106 60.7076 19.314 60.6196 19.514C60.5316 19.706 60.4116 19.878 60.2596 20.03C60.1156 20.174 59.9436 20.29 59.7436 20.378C59.5436 20.458 59.3356 20.498 59.1196 20.498C58.9036 20.498 58.6996 20.458 58.5076 20.378C58.3156 20.29 58.1436 20.174 57.9916 20.03C57.8476 19.878 57.7316 19.706 57.6436 19.514C57.5636 19.314 57.5236 19.106 57.5236 18.89C57.5236 18.666 57.5636 18.458 57.6436 18.266C57.7316 18.066 57.8476 17.894 57.9916 17.75C58.1436 17.598 58.3156 17.482 58.5076 17.402C58.6996 17.314 58.9036 17.27 59.1196 17.27C59.3356 17.27 59.5436 17.314 59.7436 17.402C59.9436 17.482 60.1156 17.598 60.2596 17.75C60.4116 17.894 60.5316 18.066 60.6196 18.266C60.7076 18.458 60.7516 18.666 60.7516 18.89ZM66.0355 31.85C66.4195 32.354 66.8315 32.706 67.2715 32.906C67.7195 33.106 68.2195 33.206 68.7715 33.206C69.8435 33.206 70.6715 32.822 71.2555 32.054C71.8475 31.278 72.1435 30.15 72.1435 28.67C72.1435 27.894 72.0755 27.234 71.9395 26.69C71.8115 26.138 71.6195 25.69 71.3635 25.346C71.1155 24.994 70.8075 24.738 70.4395 24.578C70.0715 24.41 69.6555 24.326 69.1915 24.326C68.5115 24.326 67.9195 24.478 67.4155 24.782C66.9195 25.086 66.4595 25.518 66.0355 26.078V31.85ZM65.9155 24.482C66.1715 24.178 66.4435 23.902 66.7315 23.654C67.0275 23.398 67.3435 23.182 67.6795 23.006C68.0155 22.822 68.3715 22.682 68.7475 22.586C69.1315 22.482 69.5395 22.43 69.9715 22.43C70.6675 22.43 71.2955 22.566 71.8555 22.838C72.4235 23.11 72.9075 23.51 73.3075 24.038C73.7075 24.566 74.0155 25.218 74.2315 25.994C74.4555 26.77 74.5675 27.662 74.5675 28.67C74.5675 29.574 74.4435 30.414 74.1955 31.19C73.9555 31.958 73.6075 32.626 73.1515 33.194C72.7035 33.762 72.1515 34.21 71.4955 34.538C70.8475 34.858 70.1155 35.018 69.2995 35.018C68.5715 35.018 67.9475 34.898 67.4275 34.658C66.9075 34.418 66.4435 34.082 66.0355 33.65V38.942H63.6955V22.658H65.0995C65.4275 22.658 65.6315 22.814 65.7115 23.126L65.9155 24.482ZM84.0698 34.85V24.578L82.7978 24.422C82.6138 24.382 82.4618 24.318 82.3418 24.23C82.2298 24.134 82.1738 23.998 82.1738 23.822V22.85H84.0698V21.746C84.0698 21.05 84.1698 20.43 84.3698 19.886C84.5698 19.342 84.8538 18.882 85.2218 18.506C85.5978 18.122 86.0458 17.834 86.5658 17.642C87.0938 17.442 87.6858 17.342 88.3418 17.342C88.8938 17.342 89.4018 17.422 89.8658 17.582L89.8178 18.758C89.8098 18.862 89.7778 18.942 89.7218 18.998C89.6658 19.046 89.5898 19.082 89.4938 19.106C89.4058 19.13 89.2938 19.146 89.1578 19.154C89.0298 19.154 88.8898 19.154 88.7378 19.154C88.3778 19.154 88.0498 19.198 87.7538 19.286C87.4578 19.374 87.2058 19.522 86.9978 19.73C86.7898 19.938 86.6298 20.214 86.5178 20.558C86.4058 20.894 86.3498 21.314 86.3498 21.818V22.85H89.7698V24.554H86.4218V34.85H84.0698ZM96.5478 22.466C97.4438 22.466 98.2518 22.614 98.9718 22.91C99.6998 23.198 100.316 23.618 100.82 24.17C101.332 24.714 101.724 25.374 101.996 26.15C102.268 26.918 102.404 27.782 102.404 28.742C102.404 29.702 102.268 30.57 101.996 31.346C101.724 32.122 101.332 32.782 100.82 33.326C100.316 33.87 99.6998 34.29 98.9718 34.586C98.2518 34.874 97.4438 35.018 96.5478 35.018C95.6438 35.018 94.8278 34.874 94.0998 34.586C93.3798 34.29 92.7638 33.87 92.2518 33.326C91.7398 32.782 91.3438 32.122 91.0638 31.346C90.7918 30.57 90.6558 29.702 90.6558 28.742C90.6558 27.782 90.7918 26.918 91.0638 26.15C91.3438 25.374 91.7398 24.714 92.2518 24.17C92.7638 23.618 93.3798 23.198 94.0998 22.91C94.8278 22.614 95.6438 22.466 96.5478 22.466ZM96.5478 33.194C97.6998 33.194 98.5598 32.806 99.1278 32.03C99.6958 31.254 99.9798 30.162 99.9798 28.754C99.9798 27.346 99.6958 26.254 99.1278 25.478C98.5598 24.694 97.6998 24.302 96.5478 24.302C95.3798 24.302 94.5078 24.694 93.9318 25.478C93.3638 26.254 93.0798 27.346 93.0798 28.754C93.0798 30.162 93.3638 31.254 93.9318 32.03C94.5078 32.806 95.3798 33.194 96.5478 33.194ZM107.224 24.998C107.616 24.198 108.088 23.57 108.64 23.114C109.192 22.658 109.856 22.43 110.632 22.43C110.896 22.43 111.144 22.462 111.376 22.526C111.616 22.582 111.824 22.67 112 22.79L111.844 24.554C111.788 24.77 111.656 24.878 111.448 24.878C111.336 24.878 111.168 24.858 110.944 24.818C110.72 24.77 110.48 24.746 110.224 24.746C109.848 24.746 109.516 24.802 109.228 24.914C108.94 25.018 108.68 25.178 108.448 25.394C108.224 25.602 108.024 25.862 107.848 26.174C107.672 26.478 107.508 26.826 107.356 27.218V34.85H105.016V22.658H106.36C106.616 22.658 106.788 22.706 106.876 22.802C106.972 22.89 107.04 23.05 107.08 23.282L107.224 24.998ZM121.556 24.35C121.82 24.07 122.096 23.814 122.384 23.582C122.672 23.35 122.976 23.154 123.296 22.994C123.624 22.826 123.972 22.698 124.34 22.61C124.716 22.514 125.116 22.466 125.54 22.466C126.212 22.466 126.8 22.578 127.304 22.802C127.816 23.026 128.244 23.342 128.588 23.75C128.932 24.15 129.192 24.634 129.368 25.202C129.544 25.77 129.632 26.398 129.632 27.086V34.85H127.28V27.086C127.28 26.214 127.08 25.538 126.68 25.058C126.28 24.57 125.668 24.326 124.844 24.326C124.244 24.326 123.68 24.47 123.152 24.758C122.632 25.038 122.148 25.422 121.7 25.91V34.85H119.36V22.658H120.764C121.092 22.658 121.296 22.814 121.376 23.126L121.556 24.35ZM137.985 22.466C138.881 22.466 139.689 22.614 140.409 22.91C141.137 23.198 141.753 23.618 142.257 24.17C142.769 24.714 143.161 25.374 143.433 26.15C143.705 26.918 143.841 27.782 143.841 28.742C143.841 29.702 143.705 30.57 143.433 31.346C143.161 32.122 142.769 32.782 142.257 33.326C141.753 33.87 141.137 34.29 140.409 34.586C139.689 34.874 138.881 35.018 137.985 35.018C137.081 35.018 136.265 34.874 135.537 34.586C134.817 34.29 134.201 33.87 133.689 33.326C133.177 32.782 132.781 32.122 132.501 31.346C132.229 30.57 132.093 29.702 132.093 28.742C132.093 27.782 132.229 26.918 132.501 26.15C132.781 25.374 133.177 24.714 133.689 24.17C134.201 23.618 134.817 23.198 135.537 22.91C136.265 22.614 137.081 22.466 137.985 22.466ZM137.985 33.194C139.137 33.194 139.997 32.806 140.565 32.03C141.133 31.254 141.417 30.162 141.417 28.754C141.417 27.346 141.133 26.254 140.565 25.478C139.997 24.694 139.137 24.302 137.985 24.302C136.817 24.302 135.945 24.694 135.369 25.478C134.801 26.254 134.517 27.346 134.517 28.754C134.517 30.162 134.801 31.254 135.369 32.03C135.945 32.806 136.817 33.194 137.985 33.194ZM163.222 22.658L159.298 34.85H157.426C157.202 34.85 157.05 34.702 156.97 34.406L154.402 26.462C154.338 26.262 154.282 26.066 154.234 25.874C154.186 25.674 154.142 25.474 154.102 25.274C154.03 25.69 153.93 26.094 153.802 26.486L151.198 34.406C151.118 34.702 150.946 34.85 150.682 34.85H148.906L144.97 22.658H146.818C147.002 22.658 147.154 22.702 147.274 22.79C147.402 22.878 147.486 22.99 147.526 23.126L149.722 30.614C149.794 30.918 149.858 31.214 149.914 31.502C149.97 31.79 150.022 32.078 150.07 32.366C150.142 32.078 150.218 31.79 150.298 31.502C150.386 31.214 150.474 30.918 150.562 30.614L152.998 23.078C153.038 22.942 153.114 22.834 153.226 22.754C153.338 22.666 153.474 22.622 153.634 22.622H154.654C154.83 22.622 154.974 22.666 155.086 22.754C155.206 22.834 155.286 22.942 155.326 23.078L157.702 30.614C157.79 30.918 157.874 31.218 157.954 31.514C158.034 31.802 158.106 32.094 158.17 32.39C158.218 32.102 158.274 31.814 158.338 31.526C158.402 31.23 158.474 30.926 158.554 30.614L160.786 23.126C160.826 22.99 160.906 22.878 161.026 22.79C161.154 22.702 161.298 22.658 161.458 22.658H163.222Z" fill="black"/>
</svg>
