<svg width="171" height="56" viewBox="0 0 171 56" fill="none" xmlns="http://www.w3.org/2000/svg">
<rect x="1" y="1" width="168.971" height="53.025" rx="7" fill="#FFEB33" stroke="black" stroke-width="2"/>
<path d="M69.7166 17.618L62.7086 34.85H60.4166L53.4086 17.618H55.4486C55.6726 17.618 55.8526 17.674 55.9886 17.786C56.1326 17.898 56.2406 18.042 56.3126 18.218L60.9686 29.93C61.0806 30.218 61.1886 30.534 61.2926 30.878C61.4046 31.222 61.5046 31.582 61.5926 31.958C61.6726 31.582 61.7606 31.222 61.8566 30.878C61.9526 30.534 62.0566 30.218 62.1686 29.93L66.8126 18.218C66.8686 18.058 66.9686 17.918 67.1126 17.798C67.2646 17.678 67.4486 17.618 67.6646 17.618H69.7166ZM77.6359 27.398C77.6359 26.934 77.5679 26.506 77.4319 26.114C77.3039 25.722 77.1119 25.382 76.8559 25.094C76.5999 24.806 76.2879 24.582 75.9199 24.422C75.5519 24.262 75.1279 24.182 74.6479 24.182C73.6639 24.182 72.8879 24.466 72.3199 25.034C71.7599 25.602 71.4039 26.39 71.2519 27.398H77.6359ZM79.5679 33.11C79.2799 33.446 78.9479 33.738 78.5719 33.986C78.1959 34.226 77.7959 34.422 77.3719 34.574C76.9479 34.726 76.5079 34.838 76.0519 34.91C75.6039 34.982 75.1599 35.018 74.7199 35.018C73.8799 35.018 73.0999 34.878 72.3799 34.598C71.6679 34.31 71.0479 33.894 70.5199 33.35C69.9999 32.798 69.5919 32.118 69.2959 31.31C69.0079 30.494 68.8639 29.558 68.8639 28.502C68.8639 27.654 68.9959 26.866 69.2599 26.138C69.5239 25.402 69.8999 24.762 70.3879 24.218C70.8839 23.674 71.4879 23.246 72.1999 22.934C72.9119 22.622 73.7119 22.466 74.5999 22.466C75.3439 22.466 76.0279 22.59 76.6519 22.838C77.2839 23.078 77.8279 23.43 78.2839 23.894C78.7399 24.358 79.0959 24.93 79.3519 25.61C79.6159 26.29 79.7479 27.066 79.7479 27.938C79.7479 28.298 79.7079 28.542 79.6279 28.67C79.5479 28.79 79.3999 28.85 79.1839 28.85H71.1919C71.2159 29.578 71.3199 30.214 71.5039 30.758C71.6879 31.294 71.9399 31.742 72.2599 32.102C72.5879 32.462 72.9759 32.73 73.4239 32.906C73.8719 33.082 74.3719 33.17 74.9239 33.17C75.4439 33.17 75.8919 33.11 76.2679 32.99C76.6519 32.87 76.9799 32.742 77.2519 32.606C77.5319 32.462 77.7639 32.33 77.9479 32.21C78.1399 32.09 78.3079 32.03 78.4519 32.03C78.6439 32.03 78.7919 32.102 78.8959 32.246L79.5679 33.11ZM84.471 24.998C84.863 24.198 85.335 23.57 85.887 23.114C86.439 22.658 87.103 22.43 87.879 22.43C88.143 22.43 88.391 22.462 88.623 22.526C88.863 22.582 89.071 22.67 89.247 22.79L89.091 24.554C89.035 24.77 88.903 24.878 88.695 24.878C88.583 24.878 88.415 24.858 88.191 24.818C87.967 24.77 87.727 24.746 87.471 24.746C87.095 24.746 86.763 24.802 86.475 24.914C86.187 25.018 85.927 25.178 85.695 25.394C85.471 25.602 85.271 25.862 85.095 26.174C84.919 26.478 84.755 26.826 84.603 27.218V34.85H82.263V22.658H83.607C83.863 22.658 84.035 22.706 84.123 22.802C84.219 22.89 84.287 23.05 84.327 23.282L84.471 24.998ZM93.5001 22.658V34.85H91.1601V22.658H93.5001ZM93.9441 18.89C93.9441 19.106 93.9001 19.314 93.8121 19.514C93.7241 19.706 93.6041 19.878 93.4521 20.03C93.3081 20.174 93.1361 20.29 92.9361 20.378C92.7361 20.458 92.5281 20.498 92.3121 20.498C92.0961 20.498 91.8921 20.458 91.7001 20.378C91.5081 20.29 91.3361 20.174 91.1841 20.03C91.0401 19.878 90.9241 19.706 90.8361 19.514C90.7561 19.314 90.7161 19.106 90.7161 18.89C90.7161 18.666 90.7561 18.458 90.8361 18.266C90.9241 18.066 91.0401 17.894 91.1841 17.75C91.3361 17.598 91.5081 17.482 91.7001 17.402C91.8921 17.314 92.0961 17.27 92.3121 17.27C92.5281 17.27 92.7361 17.314 92.9361 17.402C93.1361 17.482 93.3081 17.598 93.4521 17.75C93.6041 17.894 93.7241 18.066 93.8121 18.266C93.9001 18.458 93.9441 18.666 93.9441 18.89ZM97.692 34.85V24.578L96.42 24.422C96.236 24.382 96.084 24.318 95.964 24.23C95.852 24.134 95.796 23.998 95.796 23.822V22.85H97.692V21.746C97.692 21.05 97.792 20.43 97.992 19.886C98.192 19.342 98.476 18.882 98.844 18.506C99.22 18.122 99.668 17.834 100.188 17.642C100.716 17.442 101.308 17.342 101.964 17.342C102.516 17.342 103.024 17.422 103.488 17.582L103.44 18.758C103.432 18.862 103.4 18.942 103.344 18.998C103.288 19.046 103.212 19.082 103.116 19.106C103.028 19.13 102.916 19.146 102.78 19.154C102.652 19.154 102.512 19.154 102.36 19.154C102 19.154 101.672 19.198 101.376 19.286C101.08 19.374 100.828 19.522 100.62 19.73C100.412 19.938 100.252 20.214 100.14 20.558C100.028 20.894 99.972 21.314 99.972 21.818V22.85H103.392V24.554H100.044V34.85H97.692ZM116.005 22.658L109.237 38.39C109.165 38.566 109.069 38.702 108.949 38.798C108.829 38.894 108.653 38.942 108.421 38.942H106.681L108.913 34.082L103.909 22.658H105.949C106.149 22.658 106.305 22.706 106.417 22.802C106.529 22.898 106.609 23.006 106.657 23.126L109.753 30.446C109.817 30.63 109.877 30.818 109.933 31.01C109.997 31.194 110.049 31.378 110.089 31.562C110.145 31.37 110.205 31.182 110.269 30.998C110.333 30.806 110.401 30.618 110.473 30.434L113.461 23.126C113.517 22.99 113.605 22.878 113.725 22.79C113.845 22.702 113.981 22.658 114.133 22.658H116.005Z" fill="black"/>
</svg>
