<svg width="331" height="77" viewBox="0 0 331 77" fill="none" xmlns="http://www.w3.org/2000/svg">
<rect x="1.38818" y="1.38818" width="327.611" height="73.5736" rx="9.71727" fill="#FFEB33" stroke="black" stroke-width="2.77636"/>
<path d="M85.693 42.9242C85.8929 42.9242 86.065 43.0019 86.2094 43.1574L87.6087 44.69C86.6314 45.8449 85.4375 46.7389 84.0271 47.3719C82.6279 48.005 80.9398 48.3215 78.9631 48.3215C77.2306 48.3215 75.6592 48.0216 74.2488 47.4219C72.8495 46.8222 71.6501 45.9838 70.6506 44.9065C69.6622 43.8293 68.896 42.5411 68.3518 41.0418C67.8076 39.5426 67.5355 37.8934 67.5355 36.0944C67.5355 34.2953 67.8187 32.6461 68.3851 31.1469C68.9626 29.6476 69.7677 28.3594 70.8005 27.2822C71.8334 26.2049 73.0661 25.3665 74.4987 24.7668C75.9424 24.1671 77.536 23.8673 79.2796 23.8673C80.9787 23.8673 82.489 24.1449 83.8106 24.7002C85.1321 25.2554 86.2816 25.9939 87.2588 26.9157L86.0928 28.5649C86.015 28.687 85.9151 28.787 85.7929 28.8647C85.6819 28.9424 85.5319 28.9813 85.3431 28.9813C85.1321 28.9813 84.8823 28.8758 84.5935 28.6648C84.3159 28.4538 83.9439 28.2206 83.4774 27.9652C83.0221 27.6986 82.4557 27.4599 81.7783 27.2489C81.1009 27.0379 80.2568 26.9324 79.2462 26.9324C78.058 26.9324 76.9696 27.1434 75.9812 27.5654C74.9929 27.9763 74.1377 28.576 73.4159 29.3644C72.7051 30.1418 72.1499 31.1025 71.7501 32.2463C71.3614 33.3791 71.167 34.6618 71.167 36.0944C71.167 37.5492 71.3725 38.843 71.7834 39.9757C72.1943 41.1085 72.7607 42.0691 73.4825 42.8576C74.2044 43.6461 75.0539 44.2458 76.0312 44.6567C77.0085 45.0676 78.0635 45.273 79.1963 45.273C79.8848 45.273 80.5012 45.2341 81.0453 45.1564C81.6006 45.0676 82.1059 44.9399 82.5612 44.7733C83.0277 44.6067 83.4663 44.3957 83.8772 44.1403C84.2881 43.8737 84.6935 43.5572 85.0933 43.1907C85.1821 43.113 85.2765 43.0519 85.3765 43.0075C85.4764 42.952 85.5819 42.9242 85.693 42.9242ZM97.3953 30.8637C98.6391 30.8637 99.7608 31.0691 100.76 31.48C101.771 31.8798 102.626 32.4629 103.326 33.2291C104.036 33.9843 104.581 34.9005 104.958 35.9777C105.336 37.0439 105.525 38.2433 105.525 39.5759C105.525 40.9086 105.336 42.1135 104.958 43.1907C104.581 44.268 104.036 45.1842 103.326 45.9393C102.626 46.6945 101.771 47.2775 100.76 47.6885C99.7608 48.0882 98.6391 48.2881 97.3953 48.2881C96.1404 48.2881 95.0077 48.0882 93.9971 47.6885C92.9976 47.2775 92.1425 46.6945 91.4317 45.9393C90.721 45.1842 90.1712 44.268 89.7825 43.1907C89.405 42.1135 89.2162 40.9086 89.2162 39.5759C89.2162 38.2433 89.405 37.0439 89.7825 35.9777C90.1712 34.9005 90.721 33.9843 91.4317 33.2291C92.1425 32.4629 92.9976 31.8798 93.9971 31.48C95.0077 31.0691 96.1404 30.8637 97.3953 30.8637ZM97.3953 45.7561C98.9945 45.7561 100.188 45.2175 100.977 44.1403C101.765 43.063 102.16 41.5471 102.16 39.5926C102.16 37.638 101.765 36.1221 100.977 35.0449C100.188 33.9566 98.9945 33.4124 97.3953 33.4124C95.7739 33.4124 94.5634 33.9566 93.7639 35.0449C92.9754 36.1221 92.5811 37.638 92.5811 39.5926C92.5811 41.5471 92.9754 43.063 93.7639 44.1403C94.5634 45.2175 95.7739 45.7561 97.3953 45.7561ZM109.151 48.0549V31.1302H111.1C111.555 31.1302 111.838 31.3468 111.949 31.7799L112.182 33.3957C112.804 32.6517 113.493 32.0464 114.248 31.58C115.014 31.1025 115.908 30.8637 116.93 30.8637C118.052 30.8637 118.962 31.1746 119.662 31.7965C120.362 32.4073 120.872 33.2403 121.194 34.2953C121.439 33.6956 121.755 33.1792 122.144 32.7461C122.533 32.3129 122.966 31.9576 123.443 31.6799C123.921 31.4023 124.426 31.1969 124.959 31.0636C125.503 30.9303 126.053 30.8637 126.608 30.8637C127.508 30.8637 128.307 31.0081 129.007 31.2968C129.718 31.5744 130.318 31.9853 130.806 32.5295C131.295 33.0737 131.667 33.7456 131.922 34.5451C132.178 35.3447 132.305 36.2554 132.305 37.2771V48.0549H129.04V37.2771C129.04 36.0111 128.763 35.056 128.208 34.4119C127.663 33.7678 126.864 33.4457 125.809 33.4457C125.342 33.4457 124.898 33.529 124.476 33.6956C124.054 33.8511 123.682 34.0898 123.36 34.4119C123.049 34.7339 122.799 35.1337 122.61 35.6113C122.433 36.0888 122.344 36.6441 122.344 37.2771V48.0549H119.079V37.2771C119.079 35.9666 118.818 35.0005 118.296 34.3786C117.774 33.7567 117.008 33.4457 115.997 33.4457C115.297 33.4457 114.648 33.6289 114.048 33.9954C113.448 34.3619 112.899 34.8617 112.399 35.4947V48.0549H109.151ZM140.074 31.1302V48.0549H136.826V31.1302H140.074ZM140.69 25.8995C140.69 26.1994 140.629 26.4881 140.507 26.7658C140.385 27.0323 140.218 27.2711 140.007 27.4821C139.807 27.682 139.569 27.843 139.291 27.9652C139.013 28.0762 138.725 28.1317 138.425 28.1317C138.125 28.1317 137.842 28.0762 137.575 27.9652C137.309 27.843 137.07 27.682 136.859 27.4821C136.659 27.2711 136.498 27.0323 136.376 26.7658C136.265 26.4881 136.209 26.1994 136.209 25.8995C136.209 25.5886 136.265 25.2999 136.376 25.0333C136.498 24.7557 136.659 24.5169 136.859 24.317C137.07 24.106 137.309 23.945 137.575 23.8339C137.842 23.7118 138.125 23.6507 138.425 23.6507C138.725 23.6507 139.013 23.7118 139.291 23.8339C139.569 23.945 139.807 24.106 140.007 24.317C140.218 24.5169 140.385 24.7557 140.507 25.0333C140.629 25.2999 140.69 25.5886 140.69 25.8995ZM147.825 33.479C148.192 33.0903 148.575 32.735 148.975 32.4129C149.375 32.0908 149.797 31.8188 150.241 31.5966C150.696 31.3634 151.179 31.1857 151.69 31.0636C152.212 30.9303 152.767 30.8637 153.356 30.8637C154.289 30.8637 155.105 31.0192 155.805 31.3301C156.515 31.6411 157.11 32.0797 157.587 32.6461C158.065 33.2014 158.426 33.8733 158.67 34.6618C158.914 35.4502 159.036 36.322 159.036 37.2771V48.0549H155.771V37.2771C155.771 36.0666 155.494 35.1282 154.938 34.4619C154.383 33.7844 153.534 33.4457 152.39 33.4457C151.557 33.4457 150.774 33.6456 150.041 34.0454C149.319 34.4341 148.647 34.9672 148.025 35.6446V48.0549H144.777V31.1302H146.726C147.181 31.1302 147.464 31.3468 147.576 31.7799L147.825 33.479ZM169.367 39.6092C169.944 39.6092 170.45 39.5315 170.883 39.376C171.327 39.2205 171.693 39.004 171.982 38.7263C172.282 38.4376 172.504 38.0933 172.648 37.6935C172.804 37.2937 172.882 36.8551 172.882 36.3775C172.882 35.4003 172.582 34.6229 171.982 34.0454C171.393 33.4568 170.522 33.1625 169.367 33.1625C168.223 33.1625 167.351 33.4568 166.751 34.0454C166.163 34.6229 165.869 35.4003 165.869 36.3775C165.869 36.8551 165.941 37.2937 166.085 37.6935C166.241 38.0822 166.463 38.4209 166.751 38.7097C167.051 38.9873 167.418 39.2094 167.851 39.376C168.295 39.5315 168.8 39.6092 169.367 39.6092ZM174.547 48.9378C174.547 48.538 174.436 48.2215 174.214 47.9883C173.992 47.744 173.687 47.5552 173.298 47.4219C172.92 47.2775 172.476 47.1776 171.965 47.1221C171.455 47.0554 170.916 47.0055 170.35 46.9721C169.794 46.9388 169.222 46.9111 168.634 46.8889C168.045 46.8555 167.479 46.8 166.935 46.7223C166.357 47.011 165.88 47.3608 165.502 47.7717C165.136 48.1826 164.952 48.6657 164.952 49.221C164.952 49.5764 165.041 49.9095 165.219 50.2205C165.408 50.5314 165.691 50.798 166.068 51.0201C166.457 51.2533 166.94 51.431 167.518 51.5532C168.106 51.6864 168.806 51.753 169.617 51.753C170.416 51.753 171.121 51.6809 171.732 51.5365C172.343 51.4032 172.854 51.2089 173.265 50.9535C173.687 50.7091 174.003 50.4148 174.214 50.0706C174.436 49.7263 174.547 49.3487 174.547 48.9378ZM177.846 31.7632V32.9793C177.846 33.3791 177.596 33.6289 177.096 33.7289L175.28 33.9954C175.436 34.3397 175.558 34.7062 175.647 35.0949C175.736 35.4725 175.78 35.8722 175.78 36.2943C175.78 37.1272 175.619 37.8823 175.297 38.5598C174.975 39.2261 174.531 39.798 173.964 40.2756C173.398 40.7531 172.721 41.1196 171.932 41.375C171.155 41.6304 170.3 41.7581 169.367 41.7581C168.6 41.7581 167.884 41.6748 167.218 41.5083C166.885 41.7082 166.629 41.9303 166.452 42.1746C166.285 42.4078 166.202 42.641 166.202 42.8742C166.202 43.2629 166.363 43.5517 166.685 43.7405C167.018 43.9293 167.446 44.0681 167.967 44.1569C168.501 44.2347 169.106 44.2846 169.783 44.3068C170.472 44.3291 171.166 44.3679 171.865 44.4234C172.576 44.4679 173.27 44.5567 173.948 44.69C174.636 44.8121 175.242 45.0176 175.763 45.3063C176.297 45.584 176.724 45.9727 177.046 46.4724C177.379 46.961 177.546 47.5996 177.546 48.3881C177.546 49.1211 177.363 49.8318 176.996 50.5203C176.641 51.2089 176.119 51.8197 175.43 52.3527C174.742 52.8858 173.903 53.3134 172.915 53.6354C171.927 53.9575 170.805 54.1185 169.55 54.1185C168.295 54.1185 167.201 53.9964 166.268 53.752C165.347 53.5077 164.575 53.1801 163.953 52.7692C163.342 52.3583 162.881 51.8808 162.57 51.3366C162.27 50.7924 162.12 50.226 162.12 49.6375C162.12 48.8157 162.376 48.1216 162.887 47.5552C163.398 46.9777 164.103 46.5279 165.002 46.2059C164.514 45.9838 164.125 45.6839 163.836 45.3063C163.547 44.9176 163.403 44.4068 163.403 43.7738C163.403 43.5295 163.448 43.2796 163.536 43.0242C163.625 42.7576 163.758 42.4967 163.936 42.2412C164.125 41.9747 164.353 41.7248 164.619 41.4916C164.897 41.2584 165.213 41.0474 165.569 40.8586C164.736 40.3922 164.081 39.7758 163.603 39.0095C163.125 38.2322 162.887 37.3271 162.887 36.2943C162.887 35.4613 163.048 34.7117 163.37 34.0454C163.692 33.3791 164.136 32.8071 164.702 32.3296C165.28 31.8521 165.963 31.4856 166.751 31.2302C167.551 30.9747 168.423 30.847 169.367 30.847C170.833 30.847 172.093 31.1524 173.148 31.7632H177.846ZM202.296 28.0318C202.185 28.2206 202.069 28.3594 201.947 28.4483C201.824 28.5371 201.669 28.5815 201.48 28.5815C201.28 28.5815 201.053 28.4927 200.797 28.315C200.542 28.1262 200.22 27.9207 199.831 27.6986C199.453 27.4654 198.998 27.26 198.465 27.0823C197.932 26.8935 197.293 26.7991 196.549 26.7991C195.85 26.7991 195.233 26.8935 194.7 27.0823C194.178 27.26 193.74 27.5098 193.384 27.8319C193.029 28.1428 192.757 28.5149 192.568 28.948C192.39 29.37 192.301 29.8309 192.301 30.3306C192.301 30.9747 192.462 31.5078 192.785 31.9298C193.118 32.3518 193.551 32.7127 194.084 33.0126C194.617 33.3124 195.222 33.5734 195.9 33.7955C196.577 34.0176 197.271 34.2509 197.982 34.4952C198.693 34.7284 199.387 35.0005 200.064 35.3114C200.742 35.6224 201.347 36.0166 201.88 36.4942C202.413 36.9606 202.841 37.5381 203.163 38.2266C203.496 38.904 203.662 39.7369 203.662 40.7253C203.662 41.7803 203.479 42.7687 203.113 43.6905C202.757 44.6122 202.235 45.4174 201.547 46.1059C200.858 46.7945 200.009 47.3386 198.998 47.7384C197.999 48.1271 196.86 48.3215 195.583 48.3215C194.817 48.3215 194.073 48.2437 193.351 48.0882C192.629 47.9439 191.946 47.7384 191.302 47.4719C190.658 47.1943 190.053 46.8666 189.486 46.4891C188.931 46.1004 188.431 45.6673 187.987 45.1897L189.003 43.4906C189.103 43.3573 189.22 43.2463 189.353 43.1574C189.497 43.0686 189.658 43.0242 189.836 43.0242C190.069 43.0242 190.336 43.1463 190.636 43.3906C190.947 43.635 191.324 43.907 191.768 44.2069C192.224 44.4956 192.762 44.7622 193.384 45.0065C194.017 45.2508 194.783 45.373 195.683 45.373C196.416 45.373 197.071 45.2786 197.649 45.0898C198.226 44.8899 198.709 44.6122 199.098 44.2569C199.498 43.8904 199.803 43.4517 200.014 42.9409C200.225 42.43 200.331 41.8636 200.331 41.2417C200.331 40.5421 200.17 39.9702 199.848 39.5259C199.526 39.0817 199.098 38.7097 198.565 38.4098C198.032 38.11 197.427 37.8546 196.749 37.6436C196.072 37.4326 195.378 37.216 194.667 36.9939C193.956 36.7607 193.262 36.4942 192.585 36.1943C191.907 35.8945 191.302 35.5058 190.769 35.0282C190.236 34.5396 189.808 33.9343 189.486 33.2125C189.164 32.4795 189.003 31.58 189.003 30.5139C189.003 29.6587 189.17 28.8314 189.503 28.0318C189.836 27.2322 190.319 26.527 190.952 25.9162C191.596 25.2943 192.385 24.8001 193.318 24.4336C194.25 24.056 195.317 23.8673 196.516 23.8673C197.86 23.8673 199.092 24.0838 200.214 24.5169C201.347 24.9389 202.33 25.5497 203.163 26.3493L202.296 28.0318ZM214.491 30.8637C215.734 30.8637 216.856 31.0691 217.856 31.48C218.866 31.8798 219.721 32.4629 220.421 33.2291C221.132 33.9843 221.676 34.9005 222.053 35.9777C222.431 37.0439 222.62 38.2433 222.62 39.5759C222.62 40.9086 222.431 42.1135 222.053 43.1907C221.676 44.268 221.132 45.1842 220.421 45.9393C219.721 46.6945 218.866 47.2775 217.856 47.6885C216.856 48.0882 215.734 48.2881 214.491 48.2881C213.236 48.2881 212.103 48.0882 211.092 47.6885C210.093 47.2775 209.238 46.6945 208.527 45.9393C207.816 45.1842 207.267 44.268 206.878 43.1907C206.5 42.1135 206.311 40.9086 206.311 39.5759C206.311 38.2433 206.5 37.0439 206.878 35.9777C207.267 34.9005 207.816 33.9843 208.527 33.2291C209.238 32.4629 210.093 31.8798 211.092 31.48C212.103 31.0691 213.236 30.8637 214.491 30.8637ZM214.491 45.7561C216.09 45.7561 217.284 45.2175 218.072 44.1403C218.861 43.063 219.255 41.5471 219.255 39.5926C219.255 37.638 218.861 36.1221 218.072 35.0449C217.284 33.9566 216.09 33.4124 214.491 33.4124C212.869 33.4124 211.659 33.9566 210.859 35.0449C210.071 36.1221 209.676 37.638 209.676 39.5926C209.676 41.5471 210.071 43.063 210.859 44.1403C211.659 45.2175 212.869 45.7561 214.491 45.7561ZM233.459 30.8637C234.703 30.8637 235.824 31.0691 236.824 31.48C237.834 31.8798 238.69 32.4629 239.389 33.2291C240.1 33.9843 240.644 34.9005 241.022 35.9777C241.399 37.0439 241.588 38.2433 241.588 39.5759C241.588 40.9086 241.399 42.1135 241.022 43.1907C240.644 44.268 240.1 45.1842 239.389 45.9393C238.69 46.6945 237.834 47.2775 236.824 47.6885C235.824 48.0882 234.703 48.2881 233.459 48.2881C232.204 48.2881 231.071 48.0882 230.061 47.6885C229.061 47.2775 228.206 46.6945 227.495 45.9393C226.784 45.1842 226.235 44.268 225.846 43.1907C225.468 42.1135 225.28 40.9086 225.28 39.5759C225.28 38.2433 225.468 37.0439 225.846 35.9777C226.235 34.9005 226.784 33.9843 227.495 33.2291C228.206 32.4629 229.061 31.8798 230.061 31.48C231.071 31.0691 232.204 30.8637 233.459 30.8637ZM233.459 45.7561C235.058 45.7561 236.252 45.2175 237.04 44.1403C237.829 43.063 238.223 41.5471 238.223 39.5926C238.223 37.638 237.829 36.1221 237.04 35.0449C236.252 33.9566 235.058 33.4124 233.459 33.4124C231.837 33.4124 230.627 33.9566 229.827 35.0449C229.039 36.1221 228.645 37.638 228.645 39.5926C228.645 41.5471 229.039 43.063 229.827 44.1403C230.627 45.2175 231.837 45.7561 233.459 45.7561ZM248.263 33.479C248.629 33.0903 249.012 32.735 249.412 32.4129C249.812 32.0908 250.234 31.8188 250.678 31.5966C251.133 31.3634 251.616 31.1857 252.127 31.0636C252.649 30.9303 253.204 30.8637 253.793 30.8637C254.726 30.8637 255.542 31.0192 256.242 31.3301C256.953 31.6411 257.547 32.0797 258.024 32.6461C258.502 33.2014 258.863 33.8733 259.107 34.6618C259.351 35.4502 259.473 36.322 259.473 37.2771V48.0549H256.208V37.2771C256.208 36.0666 255.931 35.1282 255.376 34.4619C254.82 33.7844 253.971 33.4457 252.827 33.4457C251.994 33.4457 251.211 33.6456 250.478 34.0454C249.756 34.4341 249.084 34.9672 248.462 35.6446V48.0549H245.214V31.1302H247.163C247.618 31.1302 247.902 31.3468 248.013 31.7799L248.263 33.479Z" fill="black"/>
</svg>
